<svg xmlns="http://www.w3.org/2000/svg" viewBox="0 0 512 512">
  <rect width="512" height="512" rx="112.64" fill="#0A0A0A"/>
  <g transform="translate(28.79 432.23) scale(0.2518 -0.2518)" fill="#FAFAF7">
    <path d="M694 222Q694 176 745 156L783 142Q835 122 835 68Q835 0 749 0H175Q89 0 89 68Q89 122 141 142L179 156Q230 176 230 222V1178Q230 1225 179 1244L141 1258Q89 1278 89 1332Q89 1400 175 1400H749Q835 1400 835 1332Q835 1278 783 1258L745 1244Q694 1225 694 1178V737H1111V1178Q1111 1225 1060 1244L1022 1258Q970 1278 970 1332Q970 1400 1056 1400H1630Q1716 1400 1716 1332Q1716 1278 1664 1258L1626 1244Q1575 1225 1575 1178V222Q1575 176 1626 156L1664 142Q1716 122 1716 68Q1716 0 1630 0H1056Q970 0 970 68Q970 122 1022 142L1060 156Q1111 176 1111 222V588H694Z"/>
  </g>
</svg>
