<svg width="4481" height="1209" viewBox="0 0 4481 1209" fill="none" xmlns="http://www.w3.org/2000/svg">
<path d="M2182.19 1015.74C2177.98 1023.76 2175.55 1032.91 2176.41 1042.07C2177.27 1051.22 2181.25 1059.55 2187.77 1065.47C2194.29 1071.39 2202.96 1074.56 2212.15 1074.53C2221.35 1074.51 2230.23 1071.22 2237.81 1066.26C2237.81 1066.26 2237.81 1066.26 2237.81 1066.26C2246.7 1060.4 2255.39 1054.37 2263.89 1048.16C2297.89 1023.31 2328.75 995.62 2356.48 965.087C2408.48 907.837 2460.48 850.587 2512.48 793.337C2557.55 743.72 2612.09 702.711 2676.11 670.308C2685.96 665.323 2696.03 660.542 2706.33 655.965C2735.12 643.233 2746.23 616.032 2744.01 586.52C2741.72 556.946 2725.08 526.391 2698.96 502.669C2672.85 478.947 2640.84 465.319 2611.18 465.874C2581.59 466.492 2555.58 480.157 2545.67 510.035C2542.1 520.725 2538.31 531.21 2534.29 541.492C2508.17 608.323 2472.58 666.546 2427.52 716.163C2375.52 773.413 2323.52 830.663 2271.52 887.913C2243.78 918.446 2219.18 951.823 2197.71 988.044C2192.34 997.099 2187.17 1006.33 2182.19 1015.74Z" fill="url(#paint0_linear_78_155)"/>
<path d="M3098.24 180.883C3102.79 173.094 3105.7 164.126 3105.36 154.979C3105.04 145.837 3101.58 137.348 3095.47 131.091C3089.37 124.834 3080.96 121.172 3071.83 120.623C3062.7 120.069 3053.66 122.754 3045.76 127.117C3045.76 127.117 3045.76 127.117 3045.76 127.117C3036.97 132.009 3028.35 137.089 3019.93 142.359C2986.22 163.439 2955.46 187.545 2927.66 214.679C2875.54 265.554 2823.41 316.429 2771.29 367.304C2726.11 411.395 2672 446.326 2608.94 472.095C2599.24 476.06 2589.32 479.807 2579.2 483.338C2549.15 493.752 2536.36 520.175 2536.86 549.817C2537.42 579.531 2552.41 611.263 2577.34 636.8C2602.26 662.336 2633.62 678.097 2663.31 679.379C2692.93 680.591 2719.66 668.455 2730.8 638.662C2730.8 638.662 2730.8 638.662 2730.8 638.662C2734.58 628.626 2738.56 618.807 2742.76 609.205C2770.05 546.791 2806.29 493.538 2851.46 449.446C2903.59 398.571 2955.71 347.696 3007.84 296.821C3035.64 269.688 3060.48 239.528 3082.37 206.341C3087.85 198.044 3093.13 189.558 3098.24 180.883Z" fill="url(#paint1_linear_78_155)"/>
<path d="M3047.37 973.367C3055.54 977.133 3064.69 979.224 3073.73 978.12C3082.77 977.021 3090.89 972.9 3096.58 966.342C3102.28 959.784 3105.22 951.166 3105.03 942.062C3104.86 932.953 3101.5 924.187 3096.63 916.633C3096.63 916.633 3096.63 916.633 3096.63 916.633C3091.41 908.603 3086.02 900.773 3080.45 893.143C3058.2 862.622 3033.17 835.294 3005.37 811.161C2953.25 765.911 2901.12 720.661 2849 675.411C2803.82 636.194 2767.04 587.31 2738.65 528.76C2734.28 519.752 2730.11 510.515 2726.14 501.05C2713.77 471.393 2686.44 460.775 2656.89 463.762C2627.28 466.829 2596.69 484.624 2573.05 511.858C2549.41 539.093 2536.09 571.878 2537.21 601.628C2538.4 631.299 2552.76 656.871 2583.86 664.95C2583.86 664.95 2583.86 664.95 2583.86 664.95C2593.79 667.551 2603.52 670.382 2613.05 673.44C2675.01 693.323 2728.58 722.872 2773.75 762.089C2825.88 807.339 2878 852.589 2930.13 897.839C2957.93 921.972 2988.5 942.912 3021.85 960.657C3030.18 965.094 3038.69 969.33 3047.37 973.367Z" fill="url(#paint2_linear_78_155)"/>
<path d="M2335.53 130.782C2328.16 125.697 2319.59 122.004 2310.55 121.418C2301.51 120.828 2292.84 123.327 2286.07 128.648C2279.3 133.97 2274.82 141.811 2273.27 150.729C2271.7 159.652 2273.27 168.856 2276.47 177.218C2276.47 177.218 2276.47 177.218 2276.47 177.218C2279.72 185.635 2283.19 193.889 2286.86 201.98C2301.54 234.341 2319.55 264.089 2340.88 291.222C2380.88 342.097 2420.88 392.972 2460.88 443.847C2495.55 487.939 2520.15 539.943 2534.69 599.859C2536.93 609.077 2538.93 618.482 2540.69 628.075C2546.5 660.119 2571.26 675.762 2600.91 678.343C2630.64 680.855 2664.34 668.902 2693.07 646.311C2721.81 623.72 2741.38 593.79 2745.95 564.305C2750.44 534.888 2741.08 507.133 2711.31 493.925C2702.4 489.951 2693.74 485.789 2685.31 481.441C2630.51 453.174 2585.78 416.994 2551.12 372.903C2511.12 322.028 2471.12 271.153 2431.12 220.278C2409.78 193.144 2385.12 168.625 2357.14 146.72C2350.15 141.244 2342.94 135.931 2335.53 130.782Z" fill="url(#paint3_linear_78_155)"/>
<path d="M644.082 631.113C635.618 631.113 628.457 628.997 622.598 624.766C616.413 620.534 609.089 614.512 600.625 606.699C592.161 598.887 582.721 589.284 572.305 577.891C568.398 573.333 566.445 569.264 566.445 565.684C566.445 562.103 568.398 558.034 572.305 553.477C592.487 530.69 610.879 513.926 627.48 503.184C631.387 500.579 636.921 499.277 644.082 499.277C666.217 499.277 685.26 490.977 701.211 474.375C717.487 457.773 725.299 430.918 724.648 393.809C724.323 353.77 714.395 325.775 694.863 309.824C675.658 293.874 649.29 285.898 615.762 285.898H592.324C570.84 285.898 556.191 290.456 548.379 299.57C540.566 308.685 536.66 324.31 536.66 346.445V839.121C536.66 848.887 534.544 855.723 530.312 859.629C526.406 863.21 519.57 865 509.805 865H405.801C396.035 865 389.036 863.21 384.805 859.629C380.898 855.723 378.945 848.887 378.945 839.121V295.664C378.945 263.112 381.875 237.396 387.734 218.516C393.919 199.31 405.638 185.638 422.891 177.5C440.469 169.036 466.022 164.805 499.551 164.805H615.762C709.186 164.805 778.359 183.197 823.281 219.98C868.203 256.439 890.664 312.428 890.664 387.949C890.664 444.59 878.783 490.814 855.02 526.621C831.582 562.428 800.983 588.796 763.223 605.723C725.788 622.65 686.074 631.113 644.082 631.113ZM1120.64 457.773H1122.6C1147.01 390.065 1190.96 356.211 1254.43 356.211C1262.57 356.211 1269.24 356.699 1274.45 357.676C1279.66 358.327 1283.24 358.978 1285.2 359.629C1290.08 361.257 1292.52 365 1292.52 370.859V488.535C1292.52 498.626 1286.66 501.393 1274.94 496.836C1271.04 495.208 1265.34 493.581 1257.85 491.953C1250.69 490 1240.6 489.023 1227.58 489.023C1194.05 489.023 1167.85 501.393 1148.96 526.133C1130.08 550.547 1120.64 583.913 1120.64 626.23V839.121C1120.64 848.887 1118.53 855.723 1114.3 859.629C1110.39 863.21 1103.55 865 1093.79 865H993.203C983.438 865 976.439 863.21 972.207 859.629C968.301 855.723 966.348 848.887 966.348 839.121V429.941C966.348 422.129 967.975 416.107 971.23 411.875C978.066 402.76 986.204 393.483 995.645 384.043C1005.41 374.603 1017.29 364.512 1031.29 353.77C1033.89 351.816 1036.5 350.514 1039.1 349.863C1041.71 349.212 1043.98 348.887 1045.94 348.887C1050.49 348.887 1055.05 350.514 1059.61 353.77C1086.63 374.928 1105.51 392.995 1116.25 407.969C1119.18 411.875 1120.64 416.432 1120.64 421.641V457.773ZM1605.51 877.207C1523.48 877.207 1458.54 855.397 1410.68 811.777C1362.83 768.158 1338.91 703.216 1338.91 616.953C1338.91 528.411 1363.65 462.331 1413.12 418.711C1462.93 374.766 1529.34 352.793 1612.34 352.793C1692.42 352.793 1756.55 374.44 1804.73 417.734C1852.9 460.703 1876.99 524.18 1876.99 608.164C1876.99 695.729 1852.9 762.461 1804.73 808.359C1756.55 854.258 1690.14 877.207 1605.51 877.207ZM1610.39 759.043C1646.2 759.043 1673.22 747.975 1691.45 725.84C1709.67 703.379 1718.79 665.13 1718.79 611.094C1718.79 559.661 1709.51 523.529 1690.96 502.695C1672.73 481.536 1645.55 470.957 1609.41 470.957C1574.58 470.957 1547.08 482.35 1526.89 505.137C1507.04 527.598 1497.11 564.219 1497.11 615C1497.11 668.06 1506.55 705.332 1525.43 726.816C1544.64 748.301 1572.96 759.043 1610.39 759.043ZM1968.3 202.891C1968.3 198.659 1969.44 195.078 1971.72 192.148C1974.32 188.893 1977.74 184.661 1981.97 179.453C1991.09 169.036 2001.5 158.294 2013.22 147.227C2025.27 135.833 2037.31 124.928 2049.36 114.512C2056.84 108.327 2062.54 105.234 2066.45 105.234C2070.35 105.234 2076.21 108.327 2084.02 114.512C2109.41 136.322 2131.55 157.969 2150.43 179.453C2154.34 184.336 2157.59 188.405 2160.2 191.66C2163.12 194.915 2164.59 198.659 2164.59 202.891C2164.59 207.122 2163.12 210.866 2160.2 214.121C2157.59 217.051 2154.17 221.283 2149.94 226.816C2141.15 236.908 2130.9 247.487 2119.18 258.555C2107.79 269.622 2096.07 280.365 2084.02 290.781C2079.79 294.688 2076.37 297.292 2073.77 298.594C2071.17 299.57 2068.72 300.059 2066.45 300.059C2064.17 300.059 2061.73 299.57 2059.12 298.594C2056.84 297.292 2053.26 294.688 2048.38 290.781C2035.36 280.365 2023.31 269.622 2012.25 258.555C2001.18 247.161 1991.09 236.257 1981.97 225.84C1977.74 220.632 1974.32 216.562 1971.72 213.633C1969.44 210.703 1968.3 207.122 1968.3 202.891ZM1988.81 826.426V390.879C1988.81 381.113 1990.76 374.44 1994.67 370.859C1998.9 366.953 2005.9 365 2015.66 365H2116.25C2126.02 365 2132.85 366.953 2136.76 370.859C2140.99 374.44 2143.11 381.113 2143.11 390.879V856.211C2143.11 906.667 2136.27 947.682 2122.6 979.258C2108.93 1011.16 2091.67 1036.22 2070.84 1054.45C2050.01 1073.01 2028.85 1087.66 2007.36 1098.4C1995.64 1104.26 1985.39 1101.98 1976.6 1091.56L1917.03 1018.81C1911.82 1012.62 1909.22 1007.25 1909.22 1002.7C1909.22 998.464 1912.64 994.069 1919.47 989.512C1926.63 984.629 1935.59 977.142 1946.33 967.051C1957.4 956.96 1967.16 940.846 1975.62 918.711C1984.41 896.901 1988.81 866.139 1988.81 826.426Z" fill="black"/>
<path d="M3249.66 877.207C3167.63 877.207 3102.69 855.397 3054.84 811.777C3006.99 768.158 2983.06 703.216 2983.06 616.953C2983.06 528.411 3007.8 462.331 3057.28 418.711C3107.09 374.766 3173.49 352.793 3256.5 352.793C3336.58 352.793 3400.71 374.44 3448.88 417.734C3497.06 460.703 3521.15 524.18 3521.15 608.164C3521.15 695.729 3497.06 762.461 3448.88 808.359C3400.71 854.258 3334.3 877.207 3249.66 877.207ZM3254.55 759.043C3290.35 759.043 3317.37 747.975 3335.6 725.84C3353.83 703.379 3362.95 665.13 3362.95 611.094C3362.95 559.661 3353.67 523.529 3335.11 502.695C3316.88 481.536 3289.7 470.957 3253.57 470.957C3218.74 470.957 3191.23 482.35 3171.05 505.137C3151.19 527.598 3141.27 564.219 3141.27 615C3141.27 668.06 3150.71 705.332 3169.59 726.816C3188.79 748.301 3217.11 759.043 3254.55 759.043ZM4109.53 553.965V839.121C4109.53 848.887 4107.41 855.723 4103.18 859.629C4099.27 863.21 4092.44 865 4082.67 865H3982.09C3972.32 865 3965.32 863.21 3961.09 859.629C3957.18 855.723 3955.23 848.887 3955.23 839.121V579.355C3955.23 543.874 3947.74 517.995 3932.77 501.719C3917.8 485.443 3897.45 477.305 3871.73 477.305C3846.02 477.305 3826.16 482.839 3812.16 493.906C3798.49 504.974 3787.91 518.971 3780.43 535.898V839.121C3780.43 848.887 3778.31 855.723 3774.08 859.629C3770.17 863.21 3763.34 865 3753.57 865H3652.98C3643.22 865 3636.22 863.21 3631.99 859.629C3628.08 855.723 3626.13 848.887 3626.13 839.121V429.941C3626.13 422.129 3627.76 416.107 3631.01 411.875C3637.85 402.76 3645.99 393.483 3655.43 384.043C3665.19 374.603 3677.07 364.512 3691.07 353.77C3695.3 350.514 3699.37 348.887 3703.28 348.887C3706.86 348.887 3710.93 350.514 3715.48 353.77C3729.16 364.512 3740.88 374.766 3750.64 384.531C3760.41 394.297 3769.03 404.388 3776.52 414.805H3778.96C3784.49 407.643 3792.8 399.342 3803.86 389.902C3814.93 380.137 3830.39 371.51 3850.25 364.023C3870.43 356.536 3896.15 352.793 3927.4 352.793C3958 352.793 3987.13 358.978 4014.8 371.348C4042.47 383.717 4065.09 404.551 4082.67 433.848C4100.58 463.145 4109.53 503.184 4109.53 553.965Z" fill="black"/>
<defs>
<linearGradient id="paint0_linear_78_155" x1="2626.37" y1="583.336" x2="2210.37" y2="1041.34" gradientUnits="userSpaceOnUse">
<stop offset="0.2"/>
<stop offset="1" stop-color="#595959"/>
</linearGradient>
<linearGradient id="paint1_linear_78_155" x1="2654.65" y1="560.642" x2="3071.65" y2="153.642" gradientUnits="userSpaceOnUse">
<stop offset="0.2"/>
<stop offset="1" stop-color="#595959"/>
</linearGradient>
<linearGradient id="paint2_linear_78_155" x1="2655.33" y1="582.622" x2="3072.33" y2="944.622" gradientUnits="userSpaceOnUse">
<stop offset="0.2"/>
<stop offset="1" stop-color="#595959"/>
</linearGradient>
<linearGradient id="paint3_linear_78_155" x1="2625.61" y1="561.309" x2="2305.61" y2="154.309" gradientUnits="userSpaceOnUse">
<stop offset="0.2"/>
<stop offset="1" stop-color="#595959"/>
</linearGradient>
</defs>
</svg>
